<?xml version="1.0" encoding="UTF-8"?>
<svg width="52px" height="50px" viewBox="0 0 52 50" version="1.1" xmlns="http://www.w3.org/2000/svg" xmlns:xlink="http://www.w3.org/1999/xlink">
    <!-- Generator: Sketch 52.2 (67145) - http://www.bohemiancoding.com/sketch -->
    <title></title>
    <desc>Created with Sketch.</desc>
    <g id="Page-1" stroke="none" stroke-width="1" fill="none" fill-rule="evenodd">
        <path d="M41.3085938,11.2578125 L41.3085938,14.5292969 L19.921875,14.5292969 L19.921875,11.2578125 L41.3085938,11.2578125 Z M41.3085938,19.4121094 L41.3085938,22.6835938 L37.7441406,22.6835938 L37.7441406,19.4121094 L41.3085938,19.4121094 Z M41.3085938,27.5664062 L41.3085938,30.8378906 L37.7441406,30.8378906 L37.7441406,27.5664062 L41.3085938,27.5664062 Z M37.7441406,38.9921875 L37.7441406,35.7207031 L41.3085938,35.7207031 L41.3085938,38.9921875 L37.7441406,38.9921875 Z M35.2050781,35.7207031 L35.2050781,38.9921875 L30.859375,38.9921875 C30.2083301,38.5039038 29.4596396,38.072593 28.6132812,37.6982422 C27.7669229,37.3238914 26.8554736,36.9576841 25.8789062,36.5996094 C25.585936,36.4694004 25.2848323,36.3473313 24.9755859,36.2333984 C24.6663396,36.1194656 24.34896,35.9973965 24.0234375,35.8671875 C23.958333,35.8346353 23.9013674,35.8020835 23.8525391,35.7695312 C23.8037107,35.736979 23.7467451,35.7207031 23.6816406,35.7207031 L35.2050781,35.7207031 Z M35.2050781,22.6835938 L24.3164062,22.6835938 C24.2187495,22.0651011 24.0478528,21.4791694 23.8037109,20.9257812 C23.5595691,20.3723931 23.2584653,19.8678408 22.9003906,19.4121094 L35.2050781,19.4121094 L35.2050781,22.6835938 Z M48.4375,0.515625 C49.1536494,0.515625 49.7639949,0.767901123 50.2685547,1.27246094 C50.7731145,1.77702075 51.0253906,2.37109033 51.0253906,3.0546875 L51.0253906,47.1953125 C51.0253906,47.8789097 50.7731145,48.4729792 50.2685547,48.9775391 C49.7639949,49.4820989 49.1536494,49.734375 48.4375,49.734375 L33.3496094,49.734375 L33.3496094,49.5390625 C33.3821616,48.6275996 33.3984375,47.8138057 33.3984375,47.0976562 C33.3984375,46.3815068 33.3821616,45.7304717 33.3496094,45.1445312 L47.1679688,45.1445312 L47.1679688,5.10546875 L14.0625,5.10546875 L14.0625,15.8964844 C13.3789028,15.9941411 12.7115918,16.1650378 12.0605469,16.4091797 C11.409502,16.6533215 10.7910186,16.9544253 10.2050781,17.3125 L10.2050781,3.0546875 C10.2050781,2.37109033 10.4573542,1.77702075 10.9619141,1.27246094 C11.4664739,0.767901123 12.0768193,0.515625 12.7929688,0.515625 L48.4375,0.515625 Z M24.6582031,30.8378906 C24.7884121,30.5449204 24.8942053,30.2519546 24.9755859,29.9589844 C25.0569666,29.6660142 25.1139321,29.3730483 25.1464844,29.0800781 L25.1464844,28.4697266 C25.1464844,28.1930325 25.1139326,27.8919287 25.0488281,27.5664062 L35.2050781,27.5664062 L35.2050781,30.8378906 L24.6582031,30.8378906 Z M30.0292969,41.9707031 C30.4199238,42.5891958 30.6070964,43.9482317 30.5908203,46.0478516 C30.5745442,48.1474714 30.5664062,49.1972656 30.5664062,49.1972656 L0.78125,49.1972656 C0.78125,49.1972656 0.78125,48.1474714 0.78125,46.0478516 C0.78125,43.9482317 0.976560547,42.5891958 1.3671875,41.9707031 C1.82291895,41.2545537 2.70995435,40.6442083 4.02832031,40.1396484 C5.34668628,39.6350886 6.7545498,39.0735708 8.25195312,38.4550781 C9.74935645,37.8365854 10.7340471,37.4052747 11.2060547,37.1611328 C11.6780623,36.916991 11.9140625,36.7949219 11.9140625,36.7949219 L11.9628906,33.9140625 C11.9628906,33.9140625 11.7594421,33.6617864 11.3525391,33.1572266 C10.945636,32.6526667 10.6608081,31.7168037 10.4980469,30.3496094 C10.1399722,30.4798184 9.81445459,30.3170596 9.52148438,29.8613281 C9.22851416,29.4055967 9.06575537,29.0149756 9.03320312,28.6894531 C9.00065088,28.3639307 9.04134058,27.8919302 9.15527344,27.2734375 C9.2692063,26.6549448 9.5377583,26.3945308 9.9609375,26.4921875 C9.89583301,25.8085903 9.83072949,25.1901069 9.765625,24.6367188 C9.70052051,24.0833306 9.68424463,23.6438818 9.71679688,23.3183594 C9.84700586,22.1790308 10.4410754,21.1129607 11.4990234,20.1201172 C12.5569714,19.1272737 13.9485591,18.6308594 15.6738281,18.6308594 C17.4316494,18.6308594 18.8395129,19.1272737 19.8974609,20.1201172 C20.9554089,21.1129607 21.5332026,22.1790308 21.6308594,23.3183594 C21.6634116,23.6438818 21.6552737,24.0833306 21.6064453,24.6367188 C21.5576169,25.1901069 21.4843755,25.8085903 21.3867188,26.4921875 C21.8424502,26.3945308 22.1191401,26.6549448 22.2167969,27.2734375 C22.3144536,27.8919302 22.3632812,28.3639307 22.3632812,28.6894531 C22.330729,29.0149756 22.1598323,29.4055967 21.8505859,29.8613281 C21.5413396,30.3170596 21.22396,30.4798184 20.8984375,30.3496094 C20.703124,31.7168037 20.4101582,32.6526667 20.0195312,33.1572266 C19.6289043,33.6617864 19.4335938,33.9140625 19.4335938,33.9140625 L19.4335938,36.7949219 C19.4335938,36.7949219 19.6777319,36.916991 20.1660156,37.1611328 C20.6542993,37.4052747 21.6471279,37.8365854 23.1445312,38.4550781 C24.6419346,39.0735708 26.0497981,39.6350886 27.3681641,40.1396484 C28.68653,40.6442083 29.5735654,41.2545537 30.0292969,41.9707031 Z" id="" fill="#1C0E01"></path>
    </g>
</svg>