<?xml version="1.0" encoding="UTF-8"?>
<svg width="57px" height="54px" viewBox="0 0 57 54" version="1.1" xmlns="http://www.w3.org/2000/svg" xmlns:xlink="http://www.w3.org/1999/xlink">
    <!-- Generator: Sketch 52.2 (67145) - http://www.bohemiancoding.com/sketch -->
    <title>work</title>
    <desc>Created with Sketch.</desc>
    <g id="Page-1" stroke="none" stroke-width="1" fill="none" fill-rule="evenodd">
        <g id="work" transform="translate(-6.000000, -6.875000)">
            <path d="M40.2,18.2434211 L40.2,12.5592105 L28.8,12.5592105 L28.8,18.2434211 L40.2,18.2434211 Z M11.7,23.9276316 L11.7,55.1907895 L57.3,55.1907895 L57.3,23.9276316 L11.7,23.9276316 Z M57.3,18.2434211 C60.4635,18.2434211 63,20.7728947 63,23.9276316 L63,55.1907895 C63,58.3455263 60.4635,60.875 57.3,60.875 L11.7,60.875 C8.5365,60.875 6,58.3455263 6,55.1907895 L6.0285,23.9276316 C6.0285,20.7728947 8.5365,18.2434211 11.7,18.2434211 L23.1,18.2434211 L23.1,12.5592105 C23.1,9.40447368 25.6365,6.875 28.8,6.875 L40.2,6.875 C43.3635,6.875 45.9,9.40447368 45.9,12.5592105 L45.9,18.2434211 L57.3,18.2434211 Z" id="Shape" fill="#000000" fill-rule="nonzero"></path>
            <polygon id="Path" points="0 0.875 68 0.875 68 68.875 0 68.875"></polygon>
        </g>
    </g>
</svg>