<?xml version="1.0" encoding="UTF-8"?>
<svg width="50px" height="50px" viewBox="0 0 50 50" version="1.1" xmlns="http://www.w3.org/2000/svg" xmlns:xlink="http://www.w3.org/1999/xlink">
    <!-- Generator: Sketch 52.2 (67145) - http://www.bohemiancoding.com/sketch -->
    <title>modifie</title>
    <desc>Created with Sketch.</desc>
    <g id="Page-1" stroke="none" stroke-width="1" fill="none" fill-rule="evenodd">
        <g id="modifie" fill="#000000" fill-rule="nonzero">
            <path d="M39.2857143,28.5714286 L35.7142857,28.5714286 L35.7142857,21.4285714 L39.2857143,21.4285714 C45.2017857,21.4285714 50,16.6303571 50,10.7142857 C50,4.79821429 45.2017857,0 39.2857143,0 C33.3696429,0 28.5714286,4.79821429 28.5714286,10.7142857 L28.5714286,14.2857143 L21.4285714,14.2857143 L21.4285714,10.7142857 C21.4285714,4.79821429 16.6303571,0 10.7142857,0 C4.79821429,0 0,4.79821429 0,10.7142857 C0,16.6303571 4.79821429,21.4285714 10.7142857,21.4285714 L14.2857143,21.4285714 L14.2857143,28.5714286 L10.7142857,28.5714286 C4.79821429,28.5714286 0,33.3696429 0,39.2857143 C0,45.2017857 4.79821429,50 10.7142857,50 C16.6303571,50 21.4285714,45.2017857 21.4285714,39.2857143 L21.4285714,35.7142857 L28.5714286,35.7142857 L28.5714286,39.2857143 C28.5714286,45.2017857 33.3696429,50 39.2857143,50 C45.2017857,50 50,45.2017857 50,39.2857143 C50,33.3696429 45.2017857,28.5714286 39.2857143,28.5714286 Z M39.2857143,7.14285714 C41.2571429,7.14285714 42.8571429,8.74285714 42.8571429,10.7142857 C42.8571429,12.6857143 41.2571429,14.2857143 39.2857143,14.2857143 L35.7142857,14.2857143 L35.7142857,10.7142857 C35.7142857,8.74285714 37.3142857,7.14285714 39.2857143,7.14285714 Z M7.14285714,10.7142857 C7.14285714,8.74285714 8.74285714,7.14285714 10.7142857,7.14285714 C12.6857143,7.14285714 14.2857143,8.74285714 14.2857143,10.7142857 L14.2857143,14.2857143 L10.7142857,14.2857143 C8.74285714,14.2857143 7.14285714,12.6857143 7.14285714,10.7142857 Z M10.7142857,42.8571429 C8.74285714,42.8571429 7.14285714,41.2571429 7.14285714,39.2857143 C7.14285714,37.3142857 8.74285714,35.7142857 10.7142857,35.7142857 L14.2857143,35.7142857 L14.2857143,39.2857143 C14.2857143,41.2571429 12.6857143,42.8571429 10.7142857,42.8571429 Z M21.4285714,28.5714286 L21.4285714,21.4285714 L28.5714286,21.4285714 L28.5714286,28.5714286 L21.4285714,28.5714286 Z M39.2857143,42.8571429 C37.3142857,42.8571429 35.7142857,41.2571429 35.7142857,39.2857143 L35.7142857,35.7142857 L39.2857143,35.7142857 C41.2571429,35.7142857 42.8571429,37.3142857 42.8571429,39.2857143 C42.8571429,41.2571429 41.2571429,42.8571429 39.2857143,42.8571429 Z" id="Shape"></path>
        </g>
    </g>
</svg>