<?xml version="1.0" encoding="UTF-8"?>
<svg width="64px" height="50px" viewBox="0 0 64 50" version="1.1" xmlns="http://www.w3.org/2000/svg" xmlns:xlink="http://www.w3.org/1999/xlink">
    <!-- Generator: Sketch 52.2 (67145) - http://www.bohemiancoding.com/sketch -->
    <title></title>
    <desc>Created with Sketch.</desc>
    <g id="Page-1" stroke="none" stroke-width="1" fill="none" fill-rule="evenodd">
        <path d="M37.4023438,27.3710938 L32.7148438,26.6875 L30.5664062,29.6660156 L32.7148438,33.8652344 L29.4921875,36.2578125 L26.0742188,32.9863281 L22.65625,34.109375 L21.875,38.796875 L17.8710938,38.796875 L17.0410156,34.1582031 L13.5742187,33.0351562 L10.2539062,36.3554688 L6.98242188,34.0117188 L9.03320312,29.7636719 L6.88476562,26.8828125 L2.19726562,27.6152344 L0.927734375,23.7578125 L5.12695312,21.5605469 L5.078125,17.9472656 L0.87890625,15.75 L2.09960938,11.9414063 L6.78710938,12.5761719 L8.88671875,9.64648438 L6.78710938,5.44726562 L10.0097656,3.0546875 L13.4277344,6.32617187 L16.8457031,5.203125 L17.6269531,0.515625 L21.6308594,0.515625 L22.4609375,5.15429688 L25.9277344,6.22851563 L29.2480469,2.90820312 L32.5195312,5.25195312 L30.46875,9.5 L32.6171875,12.4296875 L37.2558594,11.6972656 L38.5253906,15.5058594 L34.375,17.7519531 L34.375,21.3652344 L38.5742188,23.5136719 L37.4023438,27.3710938 Z M19.7265625,26.0039062 C21.4843838,26.0039062 22.9899026,25.3854229 24.2431641,24.1484375 C25.4964255,22.9114521 26.1230469,21.4140713 26.1230469,19.65625 C26.1230469,17.8984287 25.4964255,16.4010479 24.2431641,15.1640625 C22.9899026,13.9270771 21.4843838,13.3085938 19.7265625,13.3085938 C17.9687412,13.3085938 16.4713604,13.9270771 15.234375,15.1640625 C13.9973896,16.4010479 13.3789062,17.8984287 13.3789062,19.65625 C13.3789062,21.4140713 13.9973896,22.9114521 15.234375,24.1484375 C16.4713604,25.3854229 17.9687412,26.0039062 19.7265625,26.0039062 Z M55.4199219,39.8710938 L52.5878906,40.4570312 L51.5625,42.8496094 L53.1738281,45.2910156 L50.9765625,47.4882812 L48.5351562,45.8769531 L46.1425781,46.8535156 L45.5566406,49.734375 L42.4316406,49.734375 L41.8457031,46.8535156 L39.453125,45.8769531 L37.0117188,47.4882812 L34.8144531,45.2910156 L36.4257812,42.8496094 L35.4003906,40.4570312 L32.5683594,39.8710938 L32.5683594,36.7460938 L35.4003906,36.1601562 L36.4257812,33.7675781 L34.8144531,31.2773438 L37.0117188,29.1289062 L39.453125,30.7402344 L41.8457031,29.7148438 L42.4316406,26.8339844 L45.5566406,26.8339844 L46.1425781,29.7148438 L48.5351562,30.7402344 L50.9765625,29.1289062 L53.1738281,31.2773438 L51.5625,33.7675781 L52.5878906,36.1601562 L55.4199219,36.7460938 L55.4199219,39.8710938 Z M43.9453125,42.9960938 C45.2148501,42.9960938 46.305334,42.5403691 47.2167969,41.6289062 C48.1282598,40.7174434 48.5839844,39.6269595 48.5839844,38.3574219 C48.5839844,37.055332 48.1282598,35.9567102 47.2167969,35.0615234 C46.305334,34.1663367 45.2148501,33.71875 43.9453125,33.71875 C42.6432227,33.71875 41.5446008,34.1663367 40.6494141,35.0615234 C39.7542273,35.9567102 39.3066406,37.055332 39.3066406,38.3574219 C39.3066406,39.6269595 39.7542273,40.7174434 40.6494141,41.6289062 C41.5446008,42.5403691 42.6432227,42.9960938 43.9453125,42.9960938 Z M60.6933594,13.6992188 L60.6933594,16.3359375 L63.0859375,17.9960938 L61.9140625,20.828125 L59.0332031,20.2421875 L57.1289062,22.0976562 L57.6660156,24.9785156 L54.7851562,26.1503906 L53.1738281,23.6601562 L50.5859375,23.6601562 L48.8769531,26.0527344 L46.0449219,24.8808594 L46.6308594,22 L44.8242188,20.0957031 L41.8945312,20.6328125 L40.7714844,17.7519531 L43.2128906,16.140625 L43.2128906,13.5527344 L40.8203125,11.84375 L42.0410156,9.01171875 L44.921875,9.59765625 L46.7773438,7.79101562 L46.2402344,4.86132812 L49.1210938,3.73828125 L50.7324219,6.1796875 L53.3691406,6.1796875 L55.0292969,3.78710938 L57.8613281,5.0078125 L57.2753906,7.88867188 L59.1308594,9.74414062 L62.0117188,9.20703125 L63.1835938,12.0878906 L60.6933594,13.6992188 Z M51.9042969,19.65625 C53.2063867,19.65625 54.3131465,19.2005254 55.2246094,18.2890625 C56.1360723,17.3775996 56.5917969,16.2708398 56.5917969,14.96875 C56.5917969,13.6992124 56.1360723,12.6087285 55.2246094,11.6972656 C54.3131465,10.7858027 53.2063867,10.3300781 51.9042969,10.3300781 C50.6347593,10.3300781 49.5442754,10.7858027 48.6328125,11.6972656 C47.7213496,12.6087285 47.265625,13.6992124 47.265625,14.96875 C47.265625,16.2708398 47.7213496,17.3775996 48.6328125,18.2890625 C49.5442754,19.2005254 50.6347593,19.65625 51.9042969,19.65625 Z" id="" fill="#1C0E01"></path>
    </g>
</svg>