<?xml version="1.0" encoding="UTF-8"?>
<svg width="51px" height="51px" viewBox="0 0 51 51" version="1.1" xmlns="http://www.w3.org/2000/svg" xmlns:xlink="http://www.w3.org/1999/xlink">
    <title>baseline-language-24px</title>
    <g id="Page-1" stroke="none" stroke-width="1" fill="none" fill-rule="evenodd">
        <g id="baseline-language-24px" transform="translate(-6.000000, -6.000000)">
            <polygon id="Path" points="0 0 62 0 62 62 0 62"></polygon>
            <path d="M31.4745,6 C17.3985,6 6,17.424 6,31.5 C6,45.576 17.3985,57 31.4745,57 C45.576,57 57,45.576 57,31.5 C57,17.424 45.576,6 31.4745,6 Z M49.146,21.3 L41.6235,21.3 C40.8075,18.1125 39.6345,15.0525 38.1045,12.222 C42.7965,13.8285 46.698,17.0925 49.146,21.3 Z M31.5,11.202 C33.6165,14.262 35.274,17.6535 36.3705,21.3 L26.6295,21.3 C27.726,17.6535 29.3835,14.262 31.5,11.202 Z M11.763,36.6 C11.355,34.968 11.1,33.2595 11.1,31.5 C11.1,29.7405 11.355,28.032 11.763,26.4 L20.382,26.4 C20.178,28.083 20.025,29.766 20.025,31.5 C20.025,33.234 20.178,34.917 20.382,36.6 L11.763,36.6 Z M13.854,41.7 L21.3765,41.7 C22.1925,44.8875 23.3655,47.9475 24.8955,50.778 C20.2035,49.1715 16.302,45.933 13.854,41.7 Z M21.3765,21.3 L13.854,21.3 C16.302,17.067 20.2035,13.8285 24.8955,12.222 C23.3655,15.0525 22.1925,18.1125 21.3765,21.3 Z M31.5,51.798 C29.3835,48.738 27.726,45.3465 26.6295,41.7 L36.3705,41.7 C35.274,45.3465 33.6165,48.738 31.5,51.798 Z M37.467,36.6 L25.533,36.6 C25.3035,34.917 25.125,33.234 25.125,31.5 C25.125,29.766 25.3035,28.0575 25.533,26.4 L37.467,26.4 C37.6965,28.0575 37.875,29.766 37.875,31.5 C37.875,33.234 37.6965,34.917 37.467,36.6 Z M38.1045,50.778 C39.6345,47.9475 40.8075,44.8875 41.6235,41.7 L49.146,41.7 C46.698,45.9075 42.7965,49.1715 38.1045,50.778 Z M42.618,36.6 C42.822,34.917 42.975,33.234 42.975,31.5 C42.975,29.766 42.822,28.083 42.618,26.4 L51.237,26.4 C51.645,28.032 51.9,29.7405 51.9,31.5 C51.9,33.2595 51.645,34.968 51.237,36.6 L42.618,36.6 Z" id="Shape" fill="#000000" fill-rule="nonzero"></path>
        </g>
    </g>
</svg>