<?xml version="1.0" encoding="UTF-8"?>
<svg width="75px" height="50px" viewBox="0 0 75 50" version="1.1" xmlns="http://www.w3.org/2000/svg" xmlns:xlink="http://www.w3.org/1999/xlink">
    <!-- Generator: Sketch 52.2 (67145) - http://www.bohemiancoding.com/sketch -->
    <title></title>
    <desc>Created with Sketch.</desc>
    <g id="Page-1" stroke="none" stroke-width="1" fill="none" fill-rule="evenodd">
        <path d="M10.7167969,49.4902344 L2.61132812,49.4902344 L5.296875,39.578125 L5.296875,22.0976562 L8.03125,23.2695312 L8.03125,39.3828125 L10.7167969,49.4902344 Z M37.4257812,33.2304688 L5.296875,19.0703125 L0.560546875,17.0195312 L5.24804687,14.9199219 L37.3769531,0.759765625 L74.2421875,17.0195312 L57.3476562,24.3925781 L37.4257812,33.2304688 Z M61.5957031,36.5507812 L37.4257812,46.1210938 L13.2070312,36.5507812 C13.2070312,34.6301987 13.4267556,32.84799 13.8662109,31.2041016 C14.3056663,29.5602131 14.9160117,28.0709702 15.6972656,26.7363281 L37.4257812,36.2578125 L59.0078125,26.7363281 C59.8541709,28.0709702 60.4970681,29.5520752 60.9365234,31.1796875 C61.3759788,32.8072998 61.5957031,34.5976465 61.5957031,36.5507812 Z" id="" fill="#1C0E01"></path>
    </g>
</svg>