<?xml version="1.0" encoding="UTF-8"?>
<svg width="56px" height="51px" viewBox="0 0 56 51" version="1.1" xmlns="http://www.w3.org/2000/svg" xmlns:xlink="http://www.w3.org/1999/xlink">
    <!-- Generator: Sketch 52.2 (67145) - http://www.bohemiancoding.com/sketch -->
    <title></title>
    <desc>Created with Sketch.</desc>
    <g id="Page-1" stroke="none" stroke-width="1" fill="none" fill-rule="evenodd">
        <path d="M7.37304688,6.9609375 C7.37304688,7.67708691 7.15332251,8.32812207 6.71386719,8.9140625 C6.27441187,9.50000293 5.72916992,9.9068999 5.078125,10.1347656 L5.078125,21.9023438 C5.72916992,22.1302095 6.27441187,22.5371064 6.71386719,23.1230469 C7.15332251,23.7089873 7.37304688,24.3762983 7.37304688,25.125 C7.37304688,25.8737017 7.15332251,26.5410127 6.71386719,27.1269531 C6.27441187,27.7128936 5.72916992,28.1197905 5.078125,28.3476562 L5.078125,40.1152344 C5.72916992,40.3431001 6.27441187,40.7499971 6.71386719,41.3359375 C7.15332251,41.9218779 7.37304688,42.5729131 7.37304688,43.2890625 C7.37304688,44.0377642 7.15332251,44.7050752 6.71386719,45.2910156 C6.27441187,45.8769561 5.72916992,46.283853 5.078125,46.5117188 L5.078125,49.0019531 C5.078125,49.2949233 4.96419385,49.5553374 4.73632812,49.7832031 C4.5084624,50.0110688 4.24804834,50.125 3.95507812,50.125 C3.62955566,50.125 3.35286572,50.0110688 3.125,49.7832031 C2.89713428,49.5553374 2.78320312,49.2949233 2.78320312,49.0019531 L2.78320312,46.5117188 C2.1321582,46.283853 1.5950542,45.8769561 1.171875,45.2910156 C0.748695801,44.7050752 0.537109375,44.0377642 0.537109375,43.2890625 C0.537109375,42.5729131 0.748695801,41.9218779 1.171875,41.3359375 C1.5950542,40.7499971 2.1321582,40.3431001 2.78320312,40.1152344 L2.78320312,28.3476562 C2.1321582,28.1197905 1.5950542,27.7128936 1.171875,27.1269531 C0.748695801,26.5410127 0.537109375,25.8737017 0.537109375,25.125 C0.537109375,24.3762983 0.748695801,23.7089873 1.171875,23.1230469 C1.5950542,22.5371064 2.1321582,22.1302095 2.78320312,21.9023438 L2.78320312,10.1347656 C2.1321582,9.9068999 1.5950542,9.50000293 1.171875,8.9140625 C0.748695801,8.32812207 0.537109375,7.67708691 0.537109375,6.9609375 C0.537109375,6.21223584 0.748695801,5.5449248 1.171875,4.95898438 C1.5950542,4.37304395 2.1321582,3.96614697 2.78320312,3.73828125 L2.78320312,1.24804688 C2.78320312,0.95507666 2.89713428,0.694662598 3.125,0.466796875 C3.35286572,0.238931152 3.62955566,0.125 3.95507812,0.125 C4.24804834,0.125 4.5084624,0.238931152 4.73632812,0.466796875 C4.96419385,0.694662598 5.078125,0.95507666 5.078125,1.24804688 L5.078125,3.73828125 C5.72916992,3.96614697 6.27441187,4.37304395 6.71386719,4.95898438 C7.15332251,5.5449248 7.37304688,6.21223584 7.37304688,6.9609375 Z M52.8320312,2.41992188 C53.4505239,2.41992188 53.97949,2.63964624 54.4189453,3.07910156 C54.8584006,3.51855688 55.078125,4.04752295 55.078125,4.66601562 L55.078125,9.20703125 C55.078125,9.82552393 54.8584006,10.3626279 54.4189453,10.8183594 C53.97949,11.2740908 53.4505239,11.5019531 52.8320312,11.5019531 L19.8730469,11.5019531 L19.0429688,11.4775391 C18.4895806,11.4612629 18.0989595,11.3391938 17.8710938,11.1113281 L13.3789062,7.7421875 C13.1184883,7.51432178 12.9882812,7.23763184 12.9882812,6.91210938 C12.9882812,6.58658691 13.1184883,6.30989697 13.3789062,6.08203125 L17.8710938,2.71289062 C18.0989595,2.4850249 18.4895806,2.37923169 19.0429688,2.39550781 L19.8730469,2.41992188 L52.8320312,2.41992188 Z M52.8320312,20.5839844 C53.4505239,20.5839844 53.97949,20.8037087 54.4189453,21.2431641 C54.8584006,21.6826194 55.078125,22.2115854 55.078125,22.8300781 L55.078125,27.4199219 C55.078125,28.0384146 54.8584006,28.5673806 54.4189453,29.0068359 C53.97949,29.4462913 53.4505239,29.6660156 52.8320312,29.6660156 L19.0429688,29.6660156 C18.4895806,29.6660156 18.0989595,29.5520845 17.8710938,29.3242188 L13.3789062,25.9550781 C13.1184883,25.7272124 12.9882812,25.4505225 12.9882812,25.125 C12.9882812,24.7994775 13.1184883,24.5065117 13.3789062,24.2460938 L17.8710938,20.9257812 C18.0989595,20.6979155 18.4895806,20.5839844 19.0429688,20.5839844 L52.8320312,20.5839844 Z M52.8320312,38.7480469 C53.4505239,38.7480469 53.97949,38.9759092 54.4189453,39.4316406 C54.8584006,39.8873721 55.078125,40.4244761 55.078125,41.0429688 L55.078125,45.5839844 C55.078125,46.2024771 54.8584006,46.7314431 54.4189453,47.1708984 C53.97949,47.6103538 53.4505239,47.8300781 52.8320312,47.8300781 L19.8730469,47.8300781 C19.8730469,47.8300781 19.5963569,47.8300781 19.0429688,47.8300781 C18.4895806,47.8300781 18.0989595,47.716147 17.8710938,47.4882812 L13.3789062,44.1191406 C13.1184883,43.8912749 12.9882812,43.614585 12.9882812,43.2890625 C12.9882812,42.96354 13.1184883,42.6868501 13.3789062,42.4589844 L17.8710938,39.0898438 C18.0989595,38.861978 18.4895806,38.7480469 19.0429688,38.7480469 C19.5963569,38.7480469 19.8730469,38.7480469 19.8730469,38.7480469 L52.8320312,38.7480469 Z" id="" fill="#1C0E01"></path>
    </g>
</svg>