<?xml version="1.0" encoding="UTF-8"?>
<svg width="59px" height="58px" viewBox="0 0 59 58" version="1.1" xmlns="http://www.w3.org/2000/svg" xmlns:xlink="http://www.w3.org/1999/xlink">
    <title>iconfinder_mark-github_298822</title>
    <desc>Created with Sketch.</desc>
    <g id="Page-1" stroke="none" stroke-width="1" fill="none" fill-rule="evenodd">
        <g id="iconfinder_mark-github_298822" fill="#000000">
            <path d="M29.5,0 C13.2087402,0 0,13.0986341 0,29.2540922 C0,42.1813156 8.45175,53.1444581 20.1750039,57.0118834 C21.6496582,57.2797412 22.1880332,56.3762354 22.1880332,55.6048872 C22.1880332,54.9085027 22.1610107,52.6016576 22.1466064,50.1590551 C13.9433594,51.9266994 12.2094277,46.7094149 12.2094277,46.7094149 C10.8662559,43.3311957 8.93423633,42.4312896 8.93423633,42.4312896 C6.25325098,40.617193 9.137625,40.6529036 9.137625,40.6529036 C12.0994941,40.8564252 13.6588457,43.666875 13.6588457,43.666875 C16.2912598,48.1378373 20.5657061,46.845115 22.2438066,46.0951932 C22.511957,44.2096755 23.2753848,42.9169532 24.1163652,42.1884577 C17.5678262,41.4492777 10.679,38.9387966 10.679,27.7292227 C10.679,24.5330988 11.8295576,21.926285 13.7128906,19.87827 C13.4121865,19.1354903 12.3966836,16.1590007 14.0045488,12.1326777 C14.0045488,12.1326777 16.4785156,11.3470453 22.1177402,15.1323649 C24.4692129,14.4806614 26.9918086,14.1592663 29.4999424,14.1485246 C32.00629,14.1592663 34.5306143,14.4842039 36.8857744,15.1359073 C42.5142822,11.3470453 44.9918213,12.1362202 44.9918213,12.1362202 C46.6051025,16.1661428 45.5895996,19.1390328 45.2871094,19.87827 C47.1776445,21.926285 48.3192139,24.533156 48.3192139,27.7292227 C48.3192139,38.9673651 41.4195557,41.4420784 34.847624,42.1670314 C35.9099697,43.0740797 36.8498213,44.8524657 36.8498213,47.5807526 C36.8498213,51.4910877 36.8101807,54.6443017 36.8101807,55.6084869 C36.8101807,56.3869771 37.3467119,57.2975679 38.8411865,57.0118834 C50.5555098,53.137316 59,42.1741735 59,29.2540922 C59,13.0986341 45.7912598,0 29.5,0 Z" id="Path"></path>
        </g>
    </g>
</svg>