<?xml version="1.0" encoding="UTF-8"?>
<svg width="400px" height="400px" viewBox="0 0 400 400" version="1.1" xmlns="http://www.w3.org/2000/svg" xmlns:xlink="http://www.w3.org/1999/xlink">
    <!-- Generator: Sketch 52.2 (67145) - http://www.bohemiancoding.com/sketch -->
    <title>icon</title>
    <desc>Created with Sketch.</desc>
    <g id="Page-1" stroke="none" stroke-width="1" fill="none" fill-rule="evenodd">
        <g id="icon">
            <polygon id="Path" fill="#F8E71C" fill-rule="nonzero" points="0 0 400 0 400 400 0 400"></polygon>
            <path d="M61.6816406,268.397461 C65.0117354,272.80178 69.3085674,276.400377 74.5722656,279.193359 C79.8359638,282.523454 86.0126599,284.188477 93.1025391,284.188477 C102.555711,284.403321 111.579059,281.126987 120.172852,274.359375 C124.362326,271.02928 127.63866,266.625027 130.001953,261.146484 C132.472669,255.882786 133.708008,249.276407 133.708008,241.327148 L133.708008,82.9335938 L169.318359,82.9335938 L169.318359,244.87207 C168.88867,268.505001 161.154372,286.766537 146.115234,299.657227 C131.183519,312.870183 113.83506,319.583983 94.0693359,319.798828 C66.7840433,319.154294 46.4278015,308.949318 33,289.183594 L61.6816406,268.397461 Z M219.108398,260.824219 C237.799898,276.185624 260.036004,283.973632 285.817383,284.188477 C316.325348,283.758787 331.793943,272.855576 332.223633,251.478516 C332.438478,233.968662 322.233502,223.441424 301.608398,219.896484 C292.155226,218.607415 281.789119,217.157235 270.509766,215.545898 C250.314352,212.215804 234.953178,204.750058 224.425781,193.148438 C213.576118,181.22455 208.151367,166.722742 208.151367,149.642578 C208.151367,129.124897 214.972588,112.582094 228.615234,100.013672 C241.828191,87.5526721 260.573121,81.2148448 284.850586,81 C314.069482,81.6445345 339.474501,89.7548049 361.066406,105.331055 L341.24707,134.657227 C323.629795,123.055606 304.24034,117.040041 283.078125,116.610352 C272.121039,116.610352 262.990271,119.349582 255.685547,124.828125 C248.058556,130.521513 244.137696,139.007756 243.922852,150.287109 C243.922852,157.054721 246.554661,163.177707 251.818359,168.65625 C257.082058,174.242215 265.51459,178.109364 277.116211,180.257812 C283.561556,181.332037 292.370061,182.567376 303.541992,183.963867 C325.563587,186.971695 341.837838,194.867124 352.365234,207.650391 C362.785208,220.218813 367.995117,234.828042 367.995117,251.478516 C366.813471,296.381084 339.313746,319.154294 285.495117,319.798828 C250.690256,319.798828 220.773563,309.056748 195.744141,287.572266 L219.108398,260.824219 Z" id="JS" fill="#1C0E01"></path>
        </g>
    </g>
</svg>