<?xml version="1.0" encoding="UTF-8"?>
<svg width="512px" height="512px" viewBox="0 0 512 512" version="1.1" xmlns="http://www.w3.org/2000/svg" xmlns:xlink="http://www.w3.org/1999/xlink">
    <title>telegram</title>
    <desc>Created with Sketch.</desc>
    <g id="Page-1" stroke="none" stroke-width="1" fill="none" fill-rule="evenodd">
        <g id="telegram">
            <circle id="Oval" fill="#000000" cx="255.997" cy="256" r="255.997"></circle>
            <path d="M213.138,307.3 L320.248062,388.16837 C323.333432,390.497832 327.723021,389.885048 330.052484,386.799678 C330.640304,386.021111 331.058896,385.128272 331.281409,384.178436 L384.183206,158.357268 C385.064997,154.593181 382.728434,150.826954 378.964347,149.945163 C377.579598,149.620766 376.128886,149.725871 374.805359,150.246485 L99.0543485,258.714013 C96.9985363,259.522673 95.9875198,261.844786 96.79618,263.900599 C97.2307901,265.005484 98.133776,265.8602 99.2608483,266.233516 L179.588,292.84 L350.890532,182.416007 L213.138,307.3 Z" id="Path" fill="#FFFFFF"></path>
            <polygon id="Path" fill="#2C2C2C" points="179.588 292.84 204.461 382.344 213.138 307.3 351.550752 182.637164"></polygon>
            <polygon id="Path" fill="#B9B9BE" points="250.738 335.688 204.461 382.344 213.138 307.3"></polygon>
        </g>
    </g>
</svg>